<svg width="55" height="55" viewBox="0 0 55 55" fill="none" xmlns="http://www.w3.org/2000/svg">
<path d="M18.4688 34.2188C18.0667 34.2269 17.6744 34.0937 17.3604 33.8425C17.0464 33.5912 16.8304 33.2378 16.75 32.8438L12.7281 12.5797C12.4939 11.4119 11.8625 10.3611 10.9414 9.60606C10.0202 8.85096 8.86609 8.43806 7.675 8.4375H4.71875C4.26291 8.4375 3.82574 8.25642 3.50341 7.93409C3.18108 7.61176 3 7.17459 3 6.71875C3 6.26291 3.18108 5.82574 3.50341 5.50341C3.82574 5.18108 4.26291 5 4.71875 5H7.675C9.65612 4.9996 11.5765 5.68369 13.1112 6.93651C14.6459 8.18932 15.7007 9.9339 16.0969 11.875L20.1875 32.1562C20.2374 32.3823 20.2412 32.6161 20.1985 32.8436C20.1559 33.0712 20.0677 33.2877 19.9393 33.4804C19.8109 33.673 19.6449 33.8377 19.4513 33.9646C19.2576 34.0914 19.0404 34.1779 18.8125 34.2188H18.4688Z" fill="#101820"/>
<path d="M20.1874 46.25H16.9905C15.1676 46.2387 13.4185 45.5282 12.1041 44.2651C10.7897 43.002 10.0102 41.2825 9.92647 39.4615C9.84269 37.6405 10.461 35.8568 11.6539 34.4783C12.8468 33.0998 14.5232 32.2317 16.3374 32.0531L47.9796 29.1828L50.7468 15.3125H15.0311C14.5753 15.3125 14.1381 15.1314 13.8158 14.8091C13.4935 14.4868 13.3124 14.0496 13.3124 13.5938C13.3124 13.1379 13.4935 12.7007 13.8158 12.3784C14.1381 12.0561 14.5753 11.875 15.0311 11.875H52.8436C53.0975 11.8767 53.3478 11.9346 53.5767 12.0445C53.8055 12.1545 54.0071 12.3138 54.1671 12.5109C54.3351 12.7042 54.4578 12.9327 54.5262 13.1795C54.5946 13.4263 54.6069 13.6853 54.5624 13.9375L51.1249 31.125C51.0523 31.4885 50.8641 31.8188 50.5884 32.0666C50.3127 32.3144 49.9643 32.4664 49.5952 32.5L16.6468 35.4906C15.6758 35.5362 14.7627 35.9656 14.1084 36.6844C13.4541 37.4032 13.1121 38.3525 13.1577 39.3234C13.2033 40.2944 13.6327 41.2074 14.3515 41.8618C15.0703 42.5161 16.0196 42.8581 16.9905 42.8125H20.1874C20.6432 42.8125 21.0804 42.9936 21.4027 43.3159C21.725 43.6382 21.9061 44.0754 21.9061 44.5312C21.9061 44.9871 21.725 45.4243 21.4027 45.7466C21.0804 46.0689 20.6432 46.25 20.1874 46.25Z" fill="#101820"/>
<path d="M45.9688 51.4063C44.609 51.4063 43.2798 51.003 42.1492 50.2476C41.0186 49.4922 40.1374 48.4184 39.6171 47.1622C39.0967 45.906 38.9606 44.5236 39.2259 43.19C39.4911 41.8564 40.1459 40.6314 41.1074 39.6699C42.0689 38.7084 43.2939 38.0536 44.6275 37.7884C45.9611 37.5231 47.3435 37.6592 48.5997 38.1796C49.8559 38.6999 50.9297 39.5811 51.6851 40.7117C52.4405 41.8423 52.8438 43.1715 52.8438 44.5313C52.8438 46.3546 52.1194 48.1033 50.8301 49.3926C49.5408 50.6819 47.7921 51.4063 45.9688 51.4063ZM45.9688 41.0938C45.2889 41.0938 44.6243 41.2954 44.059 41.6731C43.4937 42.0508 43.0531 42.5877 42.7929 43.2158C42.5327 43.8439 42.4647 44.5351 42.5973 45.2019C42.7299 45.8687 43.0573 46.4812 43.5381 46.9619C44.0188 47.4427 44.6313 47.7701 45.2981 47.9027C45.9649 48.0353 46.6561 47.9673 47.2842 47.7071C47.9124 47.4469 48.4492 47.0063 48.8269 46.441C49.2046 45.8757 49.4063 45.2111 49.4063 44.5313C49.4063 43.6196 49.0441 42.7452 48.3994 42.1006C47.7548 41.4559 46.8804 41.0938 45.9688 41.0938Z" fill="#101820"/>
<path d="M25.3438 51.4063C23.984 51.4063 22.6548 51.003 21.5242 50.2476C20.3936 49.4922 19.5124 48.4184 18.9921 47.1622C18.4717 45.906 18.3356 44.5236 18.6009 43.19C18.8661 41.8564 19.5209 40.6314 20.4824 39.6699C21.4439 38.7084 22.6689 38.0536 24.0025 37.7884C25.3361 37.5231 26.7185 37.6592 27.9747 38.1796C29.2309 38.6999 30.3047 39.5811 31.0601 40.7117C31.8155 41.8423 32.2188 43.1715 32.2188 44.5313C32.2188 46.3546 31.4944 48.1033 30.2051 49.3926C28.9158 50.6819 27.1671 51.4063 25.3438 51.4063ZM25.3438 41.0938C24.6639 41.0938 23.9993 41.2954 23.434 41.6731C22.8687 42.0508 22.4281 42.5877 22.1679 43.2158C21.9077 43.8439 21.8397 44.5351 21.9723 45.2019C22.1049 45.8687 22.4323 46.4812 22.9131 46.9619C23.3938 47.4427 24.0063 47.7701 24.6731 47.9027C25.3399 48.0353 26.0311 47.9673 26.6592 47.7071C27.2873 47.4469 27.8242 47.0063 28.2019 46.441C28.5796 45.8757 28.7813 45.2111 28.7813 44.5313C28.7813 43.6196 28.4191 42.7452 27.7744 42.1006C27.1298 41.4559 26.2554 41.0938 25.3438 41.0938Z" fill="#101820"/>
<path d="M40.8125 46.25H30.5C30.0442 46.25 29.607 46.0689 29.2847 45.7466C28.9623 45.4243 28.7812 44.9871 28.7812 44.5312C28.7812 44.0754 28.9623 43.6382 29.2847 43.3159C29.607 42.9936 30.0442 42.8125 30.5 42.8125H40.8125C41.2683 42.8125 41.7055 42.9936 42.0278 43.3159C42.3502 43.6382 42.5312 44.0754 42.5312 44.5312C42.5312 44.9871 42.3502 45.4243 42.0278 45.7466C41.7055 46.0689 41.2683 46.25 40.8125 46.25Z" fill="#101820"/>
</svg>
