<svg width="31" height="41" viewBox="0 0 31 41" fill="none" xmlns="http://www.w3.org/2000/svg">
<path d="M15.4999 3.075C17.0327 3.075 18.5311 3.52586 19.8056 4.37058C21.0801 5.21529 22.0734 6.41591 22.66 7.82062C23.2466 9.22533 23.4 10.771 23.101 12.2623C22.802 13.7535 22.0638 15.1233 20.98 16.1984C19.8961 17.2735 18.5152 18.0057 17.0119 18.3023C15.5085 18.5989 13.9502 18.4467 12.5341 17.8648C11.118 17.283 9.9076 16.2976 9.05602 15.0334C8.20444 13.7692 7.74991 12.2829 7.74991 10.7625C7.74991 8.72365 8.56642 6.7683 10.0198 5.32662C11.4732 3.88493 13.4445 3.075 15.4999 3.075ZM15.4999 0C13.354 0 11.2562 0.63121 9.47197 1.81381C7.6877 2.99641 6.29703 4.67728 5.47581 6.64387C4.6546 8.61046 4.43974 10.7744 4.85839 12.8622C5.27704 14.9499 6.3104 16.8676 7.8278 18.3727C9.3452 19.8779 11.2785 20.9029 13.3832 21.3182C15.4879 21.7335 17.6694 21.5203 19.652 20.7058C21.6346 19.8912 23.3291 18.5117 24.5214 16.7418C25.7136 14.9719 26.3499 12.8911 26.3499 10.7625C26.3499 7.90811 25.2068 5.17062 23.172 3.15226C21.1372 1.1339 18.3775 0 15.4999 0Z" fill="#323334"/>
<path d="M31 41H27.9V33.3125C27.9 31.2737 27.0835 29.3184 25.6301 27.8767C24.1767 26.435 22.2054 25.625 20.15 25.625H10.85C8.79457 25.625 6.82333 26.435 5.36992 27.8767C3.91652 29.3184 3.1 31.2737 3.1 33.3125V41H0V33.3125C0 30.4582 1.14312 27.7207 3.17789 25.7023C5.21266 23.684 7.9724 22.55 10.85 22.55H20.15C23.0276 22.55 25.7873 23.684 27.8221 25.7023C29.8569 27.7207 31 30.4582 31 33.3125V41Z" fill="#323334"/>
</svg>
