<svg width="643" height="1105" viewBox="0 0 643 1105" fill="none" xmlns="http://www.w3.org/2000/svg">
<path fill-rule="evenodd" clip-rule="evenodd" d="M582.212 535.773C578.761 526.954 574.802 521.306 570.454 517.717C568.133 515.822 565.714 514.53 563.125 513.799C557.965 512.358 552.211 513.304 545.9 515.503C537.444 518.462 528.014 523.731 517.615 529.59C516.098 530.408 514.588 531.26 513.092 532.139C510.298 535.457 507.452 538.795 504.548 542.191C504.351 542.424 504.134 542.387 504.063 542.08C503.999 541.807 504.097 541.341 504.299 541.101C506.048 538.781 507.773 536.479 509.492 534.247C489.494 546.114 470.24 560.365 451.251 576.087C452.458 575.298 453.671 574.502 454.884 573.802C459.85 570.928 464.869 568.678 469.887 566.925C476.859 564.534 483.818 563.193 490.672 562.485C495.571 562.006 500.406 561.856 505.131 562.09C511.057 562.368 516.796 563.131 522.309 564.249C523.05 562.533 523.868 560.917 524.737 559.483C527.035 555.665 529.648 553.259 532.075 553.348C533.94 553.459 535.254 554.319 536.279 555.776C536.881 556.647 537.372 557.692 537.808 558.908C538.204 559.632 538.53 560.523 538.799 561.642C538.939 562.215 539.045 562.787 539.119 563.344C539.271 563.904 539.403 564.434 539.508 565.007C539.703 566.107 539.756 567.334 539.661 568.388C539.021 576.622 534.913 583.878 530.758 587.079C529.174 588.315 527.601 588.894 526.215 588.764C521.577 590.36 517.874 586.64 518.801 576.828C519.005 575.053 519.413 572.983 519.995 570.907C514.376 570.656 508.582 570.603 502.65 570.966C495.579 571.404 488.337 572.33 481.058 574.051C474.544 575.549 467.995 577.682 461.512 580.434C457.094 582.309 452.71 584.354 448.377 586.973C447.338 587.562 446.306 588.153 445.274 588.777C447.601 588.688 449.871 588.762 452.107 589.076C454.611 589.465 457.032 590.162 459.409 591.05C464.135 592.763 468.662 595.198 472.909 598.369C475.759 600.481 478.46 602.96 481.06 605.518C483.556 608.05 485.857 610.856 488.019 613.934C490.179 617.003 492.205 620.337 494.166 623.896C494.691 624.763 495.18 625.663 495.631 626.617C496.089 627.606 496.508 628.641 496.888 629.722C497.061 630.215 497.542 630.775 497.692 631.189C497.954 631.977 497.737 632.679 497.218 633.782C497.3 634.678 497.142 633.723 497.087 634.73C497.072 635.096 497.078 634.889 496.928 635.214C496.642 635.955 496.018 636.052 495.439 636.296C493.921 636.904 491.745 636.476 490.853 636.498L476.854 635.946C469.153 635.546 461.513 635.169 454.439 632.777C452.049 631.958 449.735 630.836 447.469 629.574C445.225 628.285 443.016 626.892 440.914 624.938C435.76 620.372 432.219 611.458 427.556 605.421C426.984 604.662 426.361 604.06 425.798 603.343C425.652 603.179 425.489 602.97 425.334 602.763C413.557 611.95 401.779 622.27 390.157 631.325C375.04 645.81 359.758 660.745 344.082 675.841C320.332 698.707 296.3 715.324 272.541 726.414C279.723 725.601 286.84 724.677 293.642 723.723C306.185 722.231 318.896 720.201 331.748 716.968C335.209 716.072 338.676 715.073 342.154 714.061C349.566 711.898 357.119 707.97 364.517 705.812C366.608 697.885 371.422 693.309 375.656 692.932C380.479 692.554 384.091 697.514 381.973 707.059C380.291 714.997 375.73 720.414 371.791 721.571C370.673 721.916 369.625 721.924 368.705 721.579C367.295 721.466 366.034 720.49 365.12 718.86C364.151 717.135 363.624 714.643 363.662 711.775C355.267 716.301 346.917 719.937 338.619 722.815C322.893 728.278 307.403 731.081 292.131 733.488C287.507 734.075 282.706 734.924 277.851 735.648L278.443 735.833C281.287 736.715 284.13 737.588 286.961 738.539C289.087 739.228 291.21 739.974 293.302 740.808C294.726 741.39 296.133 741.992 297.513 742.635C298.364 743.053 299.205 743.492 300.031 743.895C301.589 744.719 303.122 745.52 304.637 746.438C305.942 747.224 307.217 748.035 308.478 748.906C311.051 750.702 313.565 752.717 316.005 754.914C318.931 757.528 321.755 760.454 324.417 763.783C327.412 767.498 330.194 771.668 332.652 776.466C332.855 776.869 333.059 777.273 333.262 777.676C333.363 777.894 333.458 778.078 333.561 778.304C333.903 779.039 334.235 779.787 334.564 780.527C335.259 782.08 335.945 783.687 336.578 785.313C336.945 786.262 337.282 787.205 337.609 788.201C337.876 789.015 338.135 789.849 338.376 790.704C338.48 791.067 338.589 791.488 338.683 791.873C338.751 792.13 338.815 792.403 338.884 792.669C339.015 793.159 339.151 793.643 339.282 794.173C339.462 794.901 339.636 795.635 339.777 796.408C339.887 797.07 339.981 797.752 339.914 798.572C339.889 798.855 339.842 799.101 339.769 799.388C339.747 799.52 339.721 799.594 339.685 799.689C339.674 799.703 339.662 799.716 339.658 799.763C339.653 799.77 339.647 799.776 339.641 799.783C339.636 799.79 339.636 799.79 339.645 799.832C339.639 799.839 339.642 799.888 339.644 799.928C339.637 800.095 339.622 800.261 339.556 800.381C339.49 800.566 339.386 800.637 339.296 800.743C339.155 800.91 339.021 801.07 338.901 801.265C338.816 801.365 338.738 801.459 338.659 801.552C338.603 801.618 338.549 801.726 338.493 801.792C338.435 801.818 338.384 801.878 338.331 801.889C338.283 801.894 338.243 801.94 338.191 801.96C337.863 802.096 337.548 802.132 337.249 802.139C336.738 802.142 336.247 802.038 335.759 801.878C335.154 801.698 334.572 801.459 333.994 801.204C333.778 801.112 333.563 801.019 333.346 800.885C333.248 800.853 333.16 800.799 333.062 800.767C327.268 798.6 321.468 796.375 315.679 794.202C315.593 794.156 315.514 794.145 315.427 794.1C315.263 794.051 315.097 793.995 314.933 793.946C314.517 793.796 314.103 793.695 313.687 793.545C312.272 793.142 310.843 792.767 309.412 792.385C301.471 790.335 293.368 788.88 285.658 785.954C284.22 785.441 282.776 784.83 281.366 784.179C279.452 783.228 277.591 782.225 275.755 781.044C272.031 778.733 268.465 775.842 265.297 772.036C264.84 771.49 264.4 770.924 263.96 770.358C263.764 770.093 263.569 769.828 263.379 769.556C261.5 766.894 259.9 763.689 258.448 760.222C257.982 759.095 257.527 757.955 257.081 756.793C256.827 756.112 256.58 755.465 256.324 754.775C255.927 753.713 255.457 752.738 254.965 751.79C254.273 750.487 253.527 749.195 252.855 747.817C252.082 746.261 251.384 744.563 251.003 742.436C250.891 741.83 250.815 741.232 250.76 740.6C250.743 740.419 250.734 740.24 250.723 740.052C250.722 739.948 250.716 739.818 250.717 739.657C250.724 739.554 250.741 739.438 250.769 739.3C250.814 739.151 250.878 739.022 250.919 738.879C250.976 738.716 251.02 738.558 251.04 738.386C251.066 738.111 251.083 737.89 251.095 737.676C251.102 737.477 251.097 737.283 251.097 737.082C251.097 736.986 251.097 736.881 251.094 736.736C251.093 736.695 251.104 736.682 251.101 736.633C251.101 736.633 251.086 736.597 251.081 736.604C251.074 736.57 251.059 736.534 251.05 736.492C251.02 736.38 251.001 736.255 251.002 736.158L250.993 736.116C250.291 736.008 249.588 735.86 248.883 735.704C234.412 740.268 220.129 742.885 206.118 743.583C182.917 744.763 160.525 740.868 139.517 732.666C138.81 732.566 138.172 732.329 137.544 732.039C137.315 732.015 137.128 731.888 137.001 731.648C122.914 725.85 109.474 718.112 96.8473 708.709C97.7313 710.831 98.6135 712.944 99.4895 715.127L99.8658 715.421C101.099 716.43 102.286 717.79 103.553 718.864C104.069 719.288 104.607 719.685 105.154 719.923L111.196 722.505C114.668 724.713 118.291 726.943 121.79 729.416C124.156 731.057 126.472 732.862 128.64 734.896C130.837 736.938 132.773 739.333 134.597 741.966C137.296 745.842 139.725 750.231 142.324 754.565C143.733 756.952 145.223 759.093 146.631 761.48C147.254 762.516 147.859 763.637 148.441 764.817L153.502 777.221C154.169 778.606 154.921 779.891 155.697 781.094C156.92 782.961 158.229 784.768 159.452 786.635C161.464 789.837 163.309 793.239 165.417 796.126C166.298 797.363 167.195 798.475 168.19 799.418C169.464 800.622 170.764 801.753 171.983 803.128C172.815 804.063 173.604 805.061 174.314 806.247L176.417 809.881C176.66 810.238 177.344 810.767 177.429 811.005C177.641 811.652 177.533 812.276 177.377 812.801C177.256 813.197 176.973 814.02 176.307 814.218C174.94 814.711 173.594 814.872 172.26 815.019C169.228 815.353 166.247 815.129 163.332 815.082C159.86 815.051 156.456 814.643 153.194 813.707C148.309 812.342 143.707 809.784 139.371 806.624C133.371 802.163 127.921 796.215 123.104 789.071C127.292 801.518 131.685 813.67 136.445 825.237C142.886 840.896 149.869 855.668 157.758 869.207C162.183 861.828 167.695 857.849 171.174 863.476C172.533 865.424 173.709 869.619 174.015 874.203C174.253 877.725 173.949 881.501 173.033 884.724C171.259 890.985 167.568 896.109 163.771 898.884C163.172 899.299 162.581 899.653 161.999 899.952C160.542 901.187 158.996 901.933 157.496 902.129C156.025 902.29 154.562 902.157 153.412 901.345C152.349 900.578 151.637 899.045 151.205 896.842C150.896 894.829 150.879 892.566 151.15 890.173C151.18 889.545 151.234 888.932 151.301 888.313C151.817 883.641 153.312 878.398 155.381 873.817C143.843 857.825 134.422 838.284 125.668 817.749C119.361 802.967 113.524 787.382 108.182 770.915C104.661 760.054 101.437 748.735 98.2222 737.362C95.7001 728.232 91.8249 721.006 89.1474 712.071C88.4182 709.618 87.6722 707.185 87.3389 704.314C87.2073 703.181 87.1584 702.108 87.1413 700.986C86.9651 700.847 86.7875 700.666 86.6169 700.52C69.2696 685.54 53.3752 669.236 40.3898 647.046C31.7457 632.269 24.4857 614.865 18.5753 594.168C18.3491 593.453 18.5715 592.238 19.0885 591.528C19.6056 590.819 20.2031 590.797 20.4399 591.562C26.9756 610.862 34.9768 626.55 43.8786 640.281C46.1418 643.777 48.4331 647.24 50.8006 650.465C62.4926 666.527 75.8106 679.41 90.2048 691.111C105.287 703.591 121.675 713.474 139.044 720.406L146.01 717.724C148.446 716.915 150.902 715.234 153.373 713.283C157.356 710.096 161.357 706.085 165.249 702.594C165.976 701.984 166.716 701.402 167.441 700.784C174.985 693.558 182.542 686.223 190.107 679.162C198.938 670.958 207.797 663.355 216.67 657.025C234.172 645.046 251.898 635.918 269.463 623.97C276.438 619.249 283.357 613.855 290.27 608.066C291.15 607.317 292.033 606.617 292.907 605.875C292.944 605.144 293.01 604.421 293.084 603.635C293.444 600.195 294.234 596.635 295.522 593.414C297.705 588.01 300.844 584.029 303.856 582.428C306.973 580.756 309.944 581.54 311.585 585.575C311.983 586.541 312.514 589.62 312.721 593.031C313.744 594.745 313.469 597.587 312.495 600.732C312.281 602.222 311.974 603.57 311.609 604.606C309.886 609.464 305.92 615.115 302.189 617.77C299.253 619.872 296.571 619.938 294.87 617.656C294.315 616.877 293.951 615.872 293.75 614.673C293.554 614.071 293.396 613.413 293.275 612.668C293.222 612.382 293.175 612.089 293.148 611.825C292.679 612.329 292.218 612.835 291.74 613.297C287.389 617.777 282.96 621.546 278.519 625.192C268.38 633.47 258.139 640.389 247.878 647.078C250.152 646.702 252.367 646.546 254.537 646.643C257.279 646.801 259.917 647.431 262.653 648.294C263.462 648.517 266.199 648.279 267.733 649.724C268.754 650.689 269.308 651.966 269.213 653.559C269.235 653.733 269.203 654.416 268.804 655.186C268.382 655.983 267.204 657.784 267.009 658.058L260.511 668.354C257.944 672.29 255.256 675.979 252.492 679.409C248.376 684.541 244.116 689.156 239.933 693.436C229.48 703.968 218.802 712.781 208.139 719.556C200.242 724.59 192.345 728.619 184.565 731.23C188.233 731.525 191.931 731.732 195.649 731.767C202.838 728.473 210.201 724.136 217.063 722.964C221.288 722.408 225.458 722.297 229.557 722.682C234.747 723.094 239.815 724.158 244.909 724.884C272.963 716.663 301.682 700.761 330.126 675.893C332.497 665.656 334.295 655.149 336.651 644.74C337.787 639.681 339.075 634.684 340.579 629.78C341.825 625.721 343.114 621.769 344.49 617.862C347.744 608.701 351.376 599.938 355.17 591.415C360.001 580.583 365.128 570.097 370.408 559.768C373.859 552.994 377.397 546.362 380.897 539.584C384.487 532.699 388.01 525.798 391.572 518.947C393.971 514.311 396.38 509.717 398.878 505.217C400.045 503.092 402.067 498.756 403.987 495.883C405.291 493.944 406.594 492.64 407.689 492.185C408.587 491.858 409.1 492.338 409.425 492.988C409.712 493.589 409.877 494.481 409.772 495.79C409.674 496.899 408.943 499.3 408.726 500.605L407.794 505.866C406.596 511.834 405.12 517.942 403.483 524.052C401.857 530.083 400.062 536.073 398.195 541.853C393.679 555.535 388.763 568.646 383.525 581.452C380.909 587.868 378.216 594.184 375.456 600.485C376.104 599.462 376.759 598.441 377.408 597.427C391.01 576.422 404.814 557.259 418.966 539.459C428.07 528.002 437.305 517.035 446.71 506.511C455.712 496.412 464.833 486.574 474.166 477.118C474.165 476.676 474.18 476.214 474.198 475.696C474.692 467.096 479.28 459.323 483.764 456.418C485.077 455.599 486.342 455.185 487.473 455.238C490.736 454.671 493.08 457.68 492.371 466.091C491.77 473.137 488.68 479.332 485.207 482.918C484.196 484.414 483.141 485.562 482.126 486.27C480.443 487.433 478.799 487.505 477.503 485.925C476.481 485.458 475.623 484.5 475.037 482.966C472.439 486.051 469.828 489.004 467.247 492.069C461.318 499.015 455.455 505.978 449.622 512.948C445.714 517.641 441.809 522.278 437.919 526.951C428.177 538.71 418.558 550.684 409.036 563.228C398.061 577.699 387.272 593.028 376.453 609.249C371.93 616.057 367.345 622.835 362.811 629.995C361.579 632.007 360.385 634.07 359.221 636.14C358.753 637.15 358.277 638.159 357.798 639.119C355.673 643.525 353.48 647.81 351.254 652.039C350.025 654.535 348.793 657.086 347.54 659.568C381.651 626.332 413.999 593.709 447.085 565.992C465.636 550.452 484.407 536.468 503.831 524.638C503.983 524.056 504.142 523.476 504.319 522.917C504.601 521.99 504.939 521.092 505.277 520.194C507.766 513.474 511.182 506.997 513.791 501.182C515.914 496.727 518.028 492.334 520.089 487.952C523.305 481.12 526.424 474.297 529.908 468.078C533.792 461.193 538.023 454.932 542.808 449.449C544.474 447.566 546.203 445.756 547.95 444.03C549.697 442.304 551.458 440.71 553.175 439.21L559.934 434.058L563.444 431.92L565.778 431.029C568.229 430.593 568.793 431.952 569.123 433.135C569.299 433.772 569.387 434.164 569.388 435.104C569.383 435.352 569.296 435.604 569.249 435.914C568.914 437.898 567.946 440.674 567.018 443.606C565.804 446.982 564.5 450.158 563.122 453.285C561.107 457.75 558.936 462.009 556.802 466.477L553.515 473.404C551.308 477.854 548.922 482.221 546.447 486.397C545.998 487.13 545.547 487.856 545.102 488.639C545.783 487.777 546.471 487.013 547.162 486.234C550.891 482.06 554.69 478.394 558.545 475.094C567.186 467.655 576.139 461.674 585.556 458.355C586.712 457.923 587.869 457.596 589.023 457.356C589.571 455.722 590.212 454.063 590.939 452.513C593.47 447.129 596.875 442.747 600.01 441.297C601.118 440.773 602.649 440.087 603.944 440.187C604.502 440.211 605.02 440.346 605.48 440.636C606.548 440.857 607.805 441.342 608.695 442.219C609.567 443.108 610.094 444.459 610.267 446.092C610.977 452.712 608.833 460.755 605.665 466.843C603.367 471.898 600.213 475.739 597.211 477.527C595.553 478.503 593.93 478.845 592.531 478.382C591.961 478.17 591.434 477.856 590.959 477.426C588.914 476.989 587.471 474.94 587.118 471.003C586.965 468.86 587.072 466.555 587.405 464.226C587.025 464.486 586.635 464.696 586.252 464.908C578.029 469.62 570.398 474.824 562.959 481.143C558.513 484.932 554.17 489.149 549.795 493.213C546.835 495.936 543.865 498.174 540.893 501.111C538.622 503.311 536.353 505.657 534.09 508.1C538.699 505.894 543.067 504.014 547.204 502.77C554.247 500.685 560.6 500.265 566.238 502.386C569.156 503.518 571.914 505.191 574.41 507.924C578.706 512.569 582.304 519.776 585.224 530.209C587.969 526.558 591.39 524.567 593.989 524.303C597.289 523.946 598.879 529.785 597.075 536.135C597.012 536.304 596.959 536.516 596.896 536.686C596.809 538.481 596.571 540.295 596.046 542.104C591.06 559.706 575.281 556.129 581.983 536.383C582.057 536.201 582.127 535.969 582.212 535.773ZM173.003 810.33C170.54 809.397 167.996 808.549 165.616 807.074C161.272 804.41 157.15 800.796 153.29 797.568C146.294 791.722 139.705 784.747 133.541 776.783C127.389 768.845 121.658 759.91 116.425 750.237L105.694 730.022C104.81 728.407 103.965 726.536 103.066 724.781C102.769 723.896 102.458 722.976 102.145 722.111C102.185 722.17 102.214 722.177 102.246 722.192C102.797 722.721 103.384 723.219 103.993 723.585L109.767 726.527C113.112 729.034 116.62 731.549 119.975 734.341C122.193 736.21 124.341 738.215 126.343 740.394C128.332 742.577 130.059 745.082 131.677 747.769C134.182 751.919 136.409 756.548 138.795 761.135L144.399 771.647C145.684 774.381 146.723 777.449 147.913 780.296C148.468 781.613 149.05 782.857 149.68 784.032C150.465 785.478 151.34 786.818 152.258 788.096C153.554 789.876 154.936 791.501 156.229 793.232C158.145 795.703 159.911 798.362 161.864 800.641C163.22 802.203 164.656 803.616 166.238 804.654C167.583 805.53 168.956 806.373 170.246 807.421C171.074 808.065 171.88 808.842 172.609 809.752L173.003 810.33ZM169.114 811.725C167.448 811.525 165.817 811.19 164.194 810.993C160.89 810.562 157.722 809.673 154.604 808.523C149.947 806.876 145.456 804.546 141.265 801.405C134.265 796.113 128.014 788.779 122.702 779.802C120.815 776.799 118.615 773.27 116.664 769.256L116.466 768.645C113.394 758.89 110.331 749.113 107.372 739.17L114.892 753.052C120.225 762.702 126.035 771.584 132.294 779.499C138.546 787.413 145.246 794.351 152.334 800.13C156.246 803.307 160.382 806.957 164.82 809.499C166.234 810.304 167.647 811.1 169.114 811.725ZM264.73 654.486C264.6 654.534 264.486 654.627 264.371 654.711C257.028 658.78 249.608 663.681 242.166 669.051C229.822 677.97 217.456 688.258 205.363 698.212C194.417 707.257 182.598 716.24 171.219 721.297C166.807 723.27 162.444 724.741 158.264 725.244C157.466 724.807 156.681 724.301 155.919 723.769C155.733 723.651 155.577 723.34 155.331 723.432C154.542 723.681 155.039 723.778 154.276 724.685C154.133 724.505 153.895 724.64 153.746 724.965C153.727 725.04 153.713 725.109 153.691 725.136C153.462 725.112 153.227 725.095 152.998 725.071C156.29 722.293 159.463 719.317 162.076 717.007C164.434 714.852 166.65 712.96 168.802 710.457C169.131 710.119 169.451 709.74 169.761 709.317C170.638 708.519 171.508 707.688 172.366 706.869L173.702 705.621C176.721 702.881 179.743 700.085 182.766 697.289C192.803 688.086 203.184 679.023 213.494 671.928C218.052 668.745 222.603 666.163 227.093 663.791C231.599 661.463 236.067 659.423 240.446 658.229C244.113 657.046 247.515 656.272 250.9 655.719C254.292 655.095 257.652 654.624 261.136 654.747C261.748 654.76 263.247 654.46 264.73 654.486ZM267.134 654.601C267.317 654.573 267.482 654.525 267.614 654.517L266.379 656.385L259.728 666.112C257.188 669.774 254.529 673.133 251.818 676.246C247.724 680.918 243.515 685.071 239.381 688.944C229.099 698.723 218.642 706.786 208.211 712.895C199.902 717.763 191.642 721.293 183.477 723.705C181.444 724.292 179.41 724.879 177.392 725.341C173.388 726.385 169.264 727.223 165.378 727.091C165.061 727.078 164.755 727.091 164.447 727.056C166.613 726.365 168.799 725.502 171.013 724.501C182.531 719.238 194.469 710.155 205.543 701.021C215.6 692.682 225.852 684.175 236.113 676.345C245.342 669.339 254.57 662.935 263.681 657.613C264.4 657.202 265.12 656.993 265.819 656.352C266.175 656.078 266.434 655.675 266.765 655.282C266.933 655.178 267.085 654.902 267.134 654.601ZM229.015 728.77C222.037 730.123 215.117 731.015 208.275 731.477C207.418 731.5 206.577 731.559 205.729 731.625C209.268 730.297 212.76 729.216 216.096 728.964C219.187 728.613 222.217 728.672 225.251 728.684C226.503 728.677 227.758 728.719 229.015 728.77ZM338.647 668.152C337.198 669.524 335.739 670.855 334.293 672.181C336.491 663.387 338.405 654.38 340.695 645.53C341.89 640.992 343.174 636.444 344.671 632.044C345.94 628.264 347.295 624.626 348.65 620.987C351.867 612.315 355.276 603.964 358.891 595.855C363.612 585.302 368.647 575.114 373.726 564.929C377.128 558.119 380.524 551.211 383.934 544.339C387.412 537.29 390.793 530.21 394.277 523.251C394.966 521.893 395.654 520.526 396.349 519.161C392.904 527.946 389.531 536.804 386.047 545.54C375.61 571.845 364.952 597.959 354.579 624.337C349.583 636.993 345.267 650.491 340.466 663.413C339.879 664.997 339.263 666.574 338.647 668.152ZM342.571 661.959C347.057 649.845 351.155 637.314 355.857 625.494C364.176 604.673 372.535 583.911 381.025 563.237C384.093 555.831 387.153 548.391 390.271 541.021C394.035 532.153 397.959 523.486 401.74 514.631C401.076 517.353 400.379 520.116 399.635 522.828C398.059 528.558 396.333 534.276 394.53 539.725C390.193 553.09 385.432 565.868 380.387 578.392C375.317 590.999 369.956 603.349 364.394 615.746C361.904 621.325 359.357 626.93 356.779 632.559C355.643 634.797 354.541 637.099 353.458 639.421C351.853 642.87 350.271 646.324 348.705 649.823C347.453 652.345 346.177 654.854 344.911 657.341C344.133 658.91 343.356 660.424 342.571 661.959ZM484.927 467.458C484.886 467.263 484.827 467.079 484.75 466.98C484.856 466.95 484.954 466.982 485.045 467.117C485.099 467.21 484.982 467.35 484.927 467.458ZM485.276 467.688C485.246 467.777 485.218 467.81 485.19 467.843C485.167 467.87 485.141 467.848 485.127 467.812C485.097 467.7 485.182 467.705 485.276 467.688ZM337.43 796.131C335.511 792.172 333.498 788.432 331.339 785.002C327.436 778.749 323.104 773.355 318.515 768.614C310.867 760.72 302.369 754.924 293.11 751.426C286.205 748.834 279.089 746.745 272.239 743.845C269.301 742.587 266.432 741.185 263.639 739.608C262.223 738.763 260.808 738.022 259.426 737.137C261.439 737.221 263.455 737.152 265.499 737.05C275.221 742.132 285.907 744.59 295.442 750.085C298.525 751.772 301.668 753.78 304.863 755.873C309.446 758.845 314.078 762.15 318.368 766.167C323.242 770.664 327.73 775.927 331.294 782.338C332.624 784.617 333.946 786.854 335.122 789.368C335.901 791.022 336.617 792.741 337.229 794.635C337.274 794.783 337.339 795.393 337.43 796.131ZM335.69 796.114C335.353 795.976 335.017 795.877 334.684 795.723C334.476 795.632 334.266 795.532 334.051 795.439C333.878 795.349 333.699 795.265 333.521 795.181C332.898 794.884 332.274 794.578 331.652 794.281C329.6 793.304 327.551 792.376 325.453 791.549C323.633 790.845 321.78 790.223 319.917 789.613C318.324 789.127 316.725 788.647 315.113 788.236C313.093 787.717 311.06 787.267 309.017 786.871C301.938 785.426 294.772 784.337 287.897 782.058C286.114 781.5 284.349 780.827 282.615 780.064C280.344 779.05 278.137 777.866 276.03 776.361C272.836 774.108 269.882 771.19 267.229 767.606C266.605 766.762 265.993 765.913 265.416 764.96C264.575 763.58 263.806 762.074 263.089 760.451C261.763 757.522 260.631 754.311 259.564 750.979C258.549 747.829 257.594 744.662 256.591 741.498L256.51 741.245C258.333 742.399 260.257 743.232 262.153 744.195C265.989 746.172 269.963 747.732 273.996 749.179C279.995 751.315 286.096 753.076 292.061 755.188C301.245 758.395 309.697 763.938 317.326 771.505C321.917 776.054 326.166 781.452 330.181 787.266C332.145 790.134 334.071 793.09 335.911 796.201L335.69 796.114ZM513.993 518.648C511.498 520.078 508.997 521.515 506.524 523.015C507.037 521.718 507.575 520.435 508.149 519.161C510.582 513.746 513.455 508.558 515.759 503.834C517.843 499.329 519.85 494.822 521.94 490.511C525.086 483.952 528.397 477.843 531.829 471.981C535.499 465.751 539.382 459.902 543.831 454.916C545.407 453.044 547.053 451.237 548.695 449.477C550.354 447.761 552.013 446.086 553.647 444.59L560.127 439.072L561.854 437.719C561.693 437.953 561.528 438.202 561.354 438.408C559.739 440.77 558.077 443.039 556.485 445.574C551.761 452.961 547.279 461.307 542.79 468.614C534.819 481.844 526.692 494.762 519.218 508.933C517.497 512.161 515.666 515.329 513.993 518.648ZM522.109 514.263C520.764 514.962 519.409 515.683 518.037 516.424C517.846 516.546 517.647 516.634 517.449 516.722C518.186 515.36 518.922 513.989 519.664 512.611C522.066 508.12 524.491 503.707 526.961 499.337C532.472 489.684 538.134 480.285 543.755 470.787C548.882 462.077 553.962 451.933 559.471 443.509C560.402 442.065 561.336 440.606 562.319 439.344C563.71 437.587 565.144 436.138 566.592 434.757C566.745 434.722 566.888 434.701 567.015 434.708C567.21 434.667 567.435 434.505 567.437 434.747C567.43 435.05 567.081 435.021 566.925 435.449C566.317 436.964 565.32 438.994 564.265 441.187C563.342 443.372 562.366 445.472 561.387 447.523C559.005 452.582 556.497 457.336 553.984 462.298L550.625 469.215C548.608 473.439 546.409 477.53 544.134 481.522C541.827 485.498 539.453 489.353 537.084 492.96C534.855 496.304 532.628 499.488 530.42 502.66C528.147 505.856 525.9 509.011 523.635 512.145C523.13 512.85 522.619 513.552 522.109 514.263ZM491.477 630.462C487.959 630.179 484.51 629.623 480.959 629.485C480.018 629.471 479.056 629.525 478.1 629.572C470.368 629.896 462.654 630.441 455.559 628.582C453.202 627.956 450.887 627.1 448.718 625.765C446.599 624.466 444.636 622.643 442.746 620.532C438.618 615.783 435.863 607.722 432.423 601.269C439.78 602.035 447.208 602.769 454.29 604.898C463.118 607.576 471.539 611.729 479.392 617.149C481.077 618.309 482.7 619.848 484.271 621.503C486.782 624.208 489.146 627.384 491.477 630.462ZM443.177 597.007C445.532 597.086 447.841 597.314 450.126 597.665C452.504 598.055 454.863 598.52 457.173 599.191C461.809 600.568 466.259 602.703 470.53 605.253C473.417 606.973 476.252 608.849 478.956 610.934C481.535 612.924 483.935 615.264 486.223 617.842C488.533 620.49 490.712 623.347 492.852 626.451C493.347 627.247 493.814 628.077 494.251 628.996C494.641 629.823 495.001 630.675 495.337 631.617C495.323 631.581 495.312 631.595 495.3 631.608C495.254 631.42 495.195 631.237 495.126 631.075C493.476 627.295 490.853 625.061 488.602 622.195C486.041 618.947 483.358 616.055 480.506 613.998C472.654 608.28 464.17 604.096 455.385 600.923C451.357 599.47 447.304 598.099 443.177 597.007ZM376.689 706.061C376.748 705.642 376.791 705.242 376.811 704.87C376.845 705.03 376.873 705.198 376.877 705.384L376.883 705.482C376.815 705.658 376.761 705.87 376.689 706.061ZM597.843 456.64C597.798 456.693 597.766 456.774 597.736 456.766C597.708 456.8 597.673 456.735 597.661 456.708C597.622 456.553 597.722 456.53 597.843 456.64ZM596.896 536.686C595.845 540.069 593.999 543.298 592.02 545.594C592.788 544.44 593.528 543.159 594.209 541.758L592.03 540.34C593.647 537.087 594.725 532.593 594.093 529.328C593.732 527.431 591.885 527.742 590.773 528.08C590.361 528.221 589.941 528.423 589.535 528.758C589.229 528.972 588.94 529.263 588.638 529.527C587.711 530.521 586.826 531.88 586.082 533.45L586.049 533.289C586.027 533.219 586.002 533.1 585.979 533.022L585.911 532.765C586.759 531.558 587.684 530.458 588.638 529.527C588.931 529.221 589.235 528.965 589.535 528.758C591.924 526.755 594.332 525.978 595.79 527.365C597.254 528.744 597.068 533.416 596.903 536.583C596.906 536.632 596.907 536.672 596.896 536.686ZM592.02 545.594C589.985 548.656 587.688 550.697 585.377 550.662C583.04 550.668 581.506 544.127 582.803 539.373C582.903 539.012 583.017 538.622 583.141 538.275C583.191 538.416 583.242 538.557 583.292 538.698C583.455 539.244 583.743 539.547 584.093 539.617C583.957 540.476 583.861 541.288 583.835 542.102C583.556 551.196 588.058 550.258 592.02 545.594ZM592.03 540.34C590.115 544.147 587.436 546.239 585.882 542.451C583.849 537.54 590.169 532.401 592.118 534.792C592.589 535.373 591.389 537.338 590.901 538.52C590.788 538.75 590.646 539.013 590.503 539.331L592.03 540.34ZM590.503 539.331C589.107 542.035 586.103 545.993 586.534 540.778C586.623 539.731 586.899 538.167 587.085 537.111L590.503 539.331Z" fill="#28221E"/>
</svg>
