<svg width="593" height="473" viewBox="0 0 593 473" fill="none" xmlns="http://www.w3.org/2000/svg">
<path fill-rule="evenodd" clip-rule="evenodd" d="M564.212 105.773C560.761 96.9538 556.802 91.3061 552.454 87.7171C550.133 85.8223 547.714 84.5303 545.125 83.7995C539.965 82.3584 534.211 83.3036 527.9 85.5028C519.444 88.4624 510.014 93.7312 499.615 99.5905C498.098 100.408 496.588 101.26 495.092 102.139C492.298 105.457 489.452 108.795 486.548 112.191C486.351 112.424 486.134 112.387 486.063 112.08C485.999 111.807 486.097 111.341 486.299 111.101C488.048 108.781 489.773 106.479 491.492 104.247C471.494 116.114 452.24 130.365 433.251 146.087C434.458 145.298 435.671 144.502 436.884 143.802C441.85 140.928 446.869 138.678 451.887 136.925C458.859 134.534 465.818 133.193 472.672 132.485C477.571 132.006 482.406 131.856 487.131 132.09C493.057 132.368 498.796 133.131 504.309 134.249C505.05 132.533 505.868 130.917 506.737 129.483C509.035 125.665 511.648 123.259 514.075 123.348C515.94 123.459 517.254 124.319 518.279 125.776C518.881 126.647 519.372 127.692 519.808 128.908C520.204 129.632 520.53 130.523 520.799 131.642C520.939 132.215 521.045 132.787 521.119 133.344C521.271 133.904 521.403 134.434 521.508 135.007C521.703 136.107 521.756 137.334 521.661 138.388C521.021 146.622 516.913 153.878 512.758 157.079C511.174 158.315 509.601 158.894 508.215 158.764C503.577 160.36 499.874 156.64 500.801 146.828C501.005 145.053 501.413 142.983 501.995 140.907C496.376 140.656 490.582 140.603 484.65 140.966C477.579 141.404 470.337 142.33 463.058 144.051C456.544 145.549 449.995 147.682 443.512 150.434C439.094 152.309 434.71 154.354 430.377 156.973C429.338 157.562 428.306 158.153 427.274 158.777C429.601 158.688 431.871 158.762 434.107 159.076C436.611 159.465 439.032 160.162 441.409 161.05C446.135 162.763 450.662 165.198 454.909 168.369C457.759 170.481 460.46 172.96 463.06 175.518C465.556 178.05 467.857 180.856 470.019 183.934C472.179 187.003 474.205 190.337 476.166 193.896C476.691 194.763 477.18 195.663 477.631 196.617C478.089 197.606 478.508 198.641 478.888 199.722C479.061 200.215 479.542 200.775 479.692 201.189C479.954 201.977 479.737 202.679 479.218 203.782C479.3 204.678 479.142 203.723 479.087 204.73C479.072 205.096 479.078 204.889 478.928 205.214C478.642 205.955 478.018 206.052 477.439 206.296C475.921 206.904 473.745 206.476 472.853 206.498L458.854 205.946C451.153 205.546 443.513 205.169 436.439 202.777C434.049 201.958 431.735 200.836 429.469 199.574C427.225 198.285 425.016 196.892 422.914 194.938C417.76 190.372 414.219 181.458 409.556 175.421C408.984 174.662 408.361 174.06 407.798 173.343C407.652 173.179 407.489 172.97 407.334 172.763C395.557 181.95 383.779 192.27 372.157 201.325C357.04 215.81 341.758 230.745 326.082 245.841C302.332 268.707 278.3 285.324 254.541 296.414C261.723 295.601 268.84 294.677 275.642 293.723C288.185 292.231 300.896 290.201 313.748 286.968C317.209 286.072 320.676 285.073 324.154 284.061C331.566 281.898 339.119 277.97 346.517 275.812C348.608 267.885 353.422 263.309 357.656 262.932C362.479 262.554 366.091 267.514 363.973 277.059C362.291 284.997 357.73 290.414 353.791 291.571C352.673 291.916 351.625 291.924 350.705 291.579C349.295 291.466 348.034 290.49 347.12 288.86C346.151 287.135 345.624 284.643 345.662 281.775C337.267 286.301 328.917 289.937 320.619 292.815C304.893 298.278 289.403 301.081 274.131 303.488C269.507 304.075 264.706 304.924 259.851 305.648L260.443 305.833C263.287 306.715 266.13 307.588 268.961 308.539C271.087 309.228 273.21 309.974 275.302 310.808C276.726 311.39 278.133 311.992 279.513 312.635C280.364 313.053 281.205 313.492 282.031 313.895C283.589 314.719 285.122 315.52 286.637 316.438C287.942 317.224 289.217 318.035 290.478 318.906C293.051 320.702 295.565 322.717 298.005 324.914C300.931 327.528 303.755 330.454 306.417 333.783C309.412 337.498 312.194 341.668 314.652 346.466C314.855 346.869 315.059 347.273 315.262 347.676C315.363 347.894 315.458 348.078 315.561 348.304C315.903 349.039 316.235 349.787 316.564 350.527C317.259 352.08 317.945 353.687 318.578 355.313C318.945 356.262 319.282 357.205 319.609 358.201C319.876 359.015 320.135 359.849 320.376 360.704C320.48 361.067 320.589 361.488 320.683 361.873C320.751 362.13 320.815 362.403 320.884 362.669C321.015 363.159 321.151 363.643 321.282 364.173C321.462 364.901 321.636 365.635 321.777 366.408C321.887 367.07 321.981 367.752 321.914 368.572C321.889 368.855 321.842 369.101 321.769 369.388C321.747 369.52 321.721 369.594 321.685 369.689C321.674 369.703 321.662 369.716 321.658 369.763C321.653 369.77 321.647 369.776 321.641 369.783C321.636 369.79 321.636 369.79 321.645 369.832C321.639 369.839 321.642 369.888 321.644 369.928C321.637 370.095 321.622 370.261 321.556 370.381C321.49 370.566 321.386 370.637 321.296 370.743C321.155 370.91 321.021 371.07 320.901 371.265C320.816 371.365 320.738 371.459 320.659 371.552C320.603 371.618 320.549 371.726 320.493 371.792C320.435 371.818 320.384 371.878 320.331 371.889C320.283 371.894 320.243 371.94 320.191 371.96C319.863 372.096 319.548 372.132 319.249 372.139C318.738 372.142 318.247 372.038 317.759 371.878C317.154 371.698 316.572 371.459 315.994 371.204C315.778 371.112 315.563 371.019 315.346 370.885C315.248 370.853 315.16 370.799 315.062 370.767C309.268 368.6 303.468 366.375 297.679 364.202C297.593 364.156 297.514 364.145 297.427 364.1C297.263 364.051 297.097 363.995 296.933 363.946C296.517 363.796 296.103 363.695 295.687 363.545C294.272 363.142 292.843 362.767 291.412 362.385C283.471 360.335 275.368 358.88 267.658 355.954C266.22 355.441 264.776 354.83 263.366 354.179C261.452 353.228 259.591 352.225 257.755 351.044C254.031 348.733 250.465 345.842 247.297 342.036C246.84 341.49 246.4 340.924 245.96 340.358C245.764 340.093 245.569 339.828 245.379 339.556C243.5 336.894 241.9 333.689 240.448 330.222C239.982 329.095 239.527 327.955 239.081 326.793C238.827 326.112 238.58 325.465 238.324 324.775C237.927 323.713 237.457 322.738 236.965 321.79C236.273 320.487 235.527 319.195 234.855 317.817C234.082 316.261 233.384 314.563 233.003 312.436C232.891 311.83 232.815 311.232 232.76 310.6C232.743 310.419 232.734 310.24 232.723 310.052C232.722 309.948 232.716 309.818 232.717 309.657C232.724 309.554 232.741 309.438 232.769 309.3C232.814 309.151 232.878 309.022 232.919 308.879C232.976 308.716 233.02 308.558 233.04 308.386C233.066 308.111 233.083 307.89 233.095 307.676C233.102 307.477 233.097 307.283 233.097 307.082C233.097 306.986 233.097 306.881 233.094 306.736C233.093 306.695 233.104 306.682 233.101 306.633C233.101 306.633 233.086 306.597 233.081 306.604C233.074 306.57 233.059 306.534 233.05 306.492C233.02 306.38 233.001 306.255 233.002 306.158L232.993 306.116C232.291 306.008 231.588 305.86 230.883 305.704C216.412 310.268 202.129 312.885 188.118 313.583C164.917 314.763 142.525 310.868 121.517 302.666C120.81 302.566 120.172 302.329 119.544 302.039C119.315 302.015 119.128 301.888 119.001 301.648C104.914 295.85 91.4736 288.112 78.8473 278.709C79.7313 280.831 80.6135 282.944 81.4895 285.127L81.8658 285.421C83.0987 286.43 84.2858 287.79 85.5533 288.864C86.0688 289.288 86.6068 289.685 87.1537 289.923L93.1958 292.505C96.6675 294.713 100.291 296.943 103.79 299.416C106.156 301.057 108.472 302.862 110.64 304.896C112.837 306.938 114.773 309.333 116.597 311.966C119.296 315.842 121.725 320.231 124.324 324.565C125.733 326.952 127.223 329.093 128.631 331.48C129.254 332.516 129.859 333.637 130.441 334.817L135.502 347.221C136.169 348.606 136.921 349.891 137.697 351.094C138.92 352.961 140.229 354.768 141.452 356.635C143.464 359.837 145.309 363.239 147.417 366.126C148.298 367.363 149.195 368.475 150.19 369.418C151.464 370.622 152.764 371.753 153.983 373.128C154.815 374.063 155.604 375.061 156.314 376.247L158.417 379.881C158.66 380.238 159.344 380.767 159.429 381.005C159.641 381.652 159.533 382.276 159.377 382.801C159.256 383.197 158.973 384.02 158.307 384.218C156.94 384.711 155.594 384.872 154.26 385.019C151.228 385.353 148.247 385.129 145.332 385.082C141.86 385.051 138.456 384.643 135.194 383.707C130.309 382.342 125.707 379.784 121.371 376.624C115.371 372.163 109.921 366.215 105.104 359.071C109.292 371.518 113.685 383.67 118.445 395.237C124.886 410.896 131.869 425.668 139.758 439.207C144.183 431.828 149.695 427.849 153.174 433.476C154.533 435.424 155.709 439.619 156.015 444.203C156.253 447.725 155.949 451.501 155.033 454.724C153.259 460.985 149.568 466.109 145.771 468.884C145.172 469.299 144.581 469.653 143.999 469.952C142.542 471.187 140.996 471.933 139.496 472.129C138.025 472.29 136.562 472.157 135.412 471.345C134.349 470.578 133.637 469.045 133.205 466.842C132.896 464.829 132.879 462.566 133.15 460.173C133.18 459.545 133.234 458.932 133.301 458.313C133.817 453.641 135.312 448.398 137.381 443.817C125.843 427.825 116.422 408.284 107.668 387.749C101.361 372.967 95.5239 357.382 90.1816 340.915C86.6609 330.054 83.4366 318.735 80.2222 307.362C77.7001 298.232 73.8249 291.006 71.1474 282.071C70.4182 279.618 69.6722 277.185 69.3389 274.314C69.2073 273.181 69.1584 272.108 69.1413 270.986C68.9651 270.847 68.7875 270.666 68.6169 270.52C51.2696 255.54 35.3752 239.236 22.3898 217.046C13.7457 202.269 6.48566 184.865 0.575282 164.168C0.3491 163.453 0.571458 162.238 1.08853 161.528C1.60561 160.819 2.20306 160.797 2.43985 161.562C8.97556 180.862 16.9768 196.55 25.8786 210.281C28.1418 213.777 30.4331 217.24 32.8006 220.465C44.4926 236.527 57.8106 249.41 72.2048 261.111C87.2869 273.591 103.675 283.474 121.044 290.406L128.01 287.724C130.446 286.915 132.902 285.234 135.373 283.283C139.356 280.096 143.357 276.085 147.249 272.594C147.976 271.984 148.716 271.402 149.441 270.784C156.985 263.558 164.542 256.223 172.107 249.162C180.938 240.958 189.797 233.355 198.67 227.025C216.172 215.046 233.898 205.918 251.463 193.97C258.438 189.249 265.357 183.855 272.27 178.066C273.15 177.317 274.033 176.617 274.907 175.875C274.944 175.144 275.01 174.421 275.084 173.635C275.444 170.195 276.234 166.635 277.522 163.414C279.705 158.01 282.844 154.029 285.856 152.428C288.973 150.756 291.944 151.54 293.585 155.575C293.983 156.541 294.514 159.62 294.721 163.031C295.744 164.745 295.469 167.587 294.495 170.732C294.281 172.222 293.974 173.57 293.609 174.606C291.886 179.464 287.92 185.115 284.189 187.77C281.253 189.872 278.571 189.938 276.87 187.656C276.315 186.877 275.951 185.872 275.75 184.673C275.554 184.071 275.396 183.413 275.275 182.668C275.222 182.382 275.175 182.089 275.148 181.825C274.679 182.329 274.218 182.835 273.74 183.297C269.389 187.777 264.96 191.546 260.519 195.192C250.38 203.47 240.139 210.389 229.878 217.078C232.152 216.702 234.367 216.546 236.537 216.643C239.279 216.801 241.917 217.431 244.653 218.294C245.462 218.517 248.199 218.279 249.733 219.724C250.754 220.689 251.308 221.966 251.213 223.559C251.235 223.733 251.203 224.416 250.804 225.186C250.382 225.983 249.204 227.784 249.009 228.058L242.511 238.354C239.944 242.29 237.256 245.979 234.492 249.409C230.376 254.541 226.116 259.156 221.933 263.436C211.48 273.968 200.802 282.781 190.139 289.556C182.242 294.59 174.345 298.619 166.565 301.23C170.233 301.525 173.931 301.732 177.649 301.767C184.838 298.473 192.201 294.136 199.063 292.964C203.288 292.408 207.458 292.297 211.557 292.682C216.747 293.094 221.815 294.158 226.909 294.884C254.963 286.663 283.682 270.761 312.126 245.893C314.497 235.656 316.295 225.149 318.651 214.74C319.787 209.681 321.075 204.684 322.579 199.78C323.825 195.721 325.114 191.769 326.49 187.862C329.744 178.701 333.376 169.938 337.17 161.415C342.001 150.583 347.128 140.097 352.408 129.768C355.859 122.994 359.397 116.362 362.897 109.584C366.487 102.699 370.01 95.7984 373.572 88.947C375.971 84.3107 378.38 79.7166 380.878 75.2169C382.045 73.0915 384.067 68.7563 385.987 65.8834C387.291 63.9442 388.594 62.6399 389.689 62.1849C390.587 61.8584 391.1 62.3377 391.425 62.988C391.712 63.5887 391.877 64.4811 391.772 65.7896C391.674 66.899 390.943 69.2999 390.726 70.6049L389.794 75.8662C388.596 81.8339 387.12 87.9423 385.483 94.0515C383.857 100.083 382.062 106.073 380.195 111.853C375.679 125.535 370.763 138.646 365.525 151.452C362.909 157.868 360.216 164.184 357.456 170.485C358.104 169.462 358.759 168.441 359.408 167.427C373.01 146.422 386.814 127.259 400.966 109.459C410.07 98.0021 419.305 87.0351 428.71 76.5115C437.712 66.4119 446.833 56.5743 456.166 47.1184C456.165 46.676 456.18 46.2136 456.198 45.6956C456.692 37.096 461.28 29.3226 465.764 26.4184C467.077 25.5989 468.342 25.1855 469.473 25.2375C472.736 24.6707 475.08 27.6803 474.371 36.0907C473.77 43.1368 470.68 49.3322 467.207 52.9179C466.196 54.4144 465.141 55.5622 464.126 56.2702C462.443 57.4333 460.799 57.5046 459.503 55.9252C458.481 55.4578 457.623 54.5001 457.037 52.966C454.439 56.0508 451.828 59.0038 449.247 62.0687C443.318 69.0151 437.455 75.9777 431.622 82.9476C427.714 87.6406 423.809 92.2779 419.919 96.9509C410.177 108.71 400.558 120.684 391.036 133.228C380.061 147.699 369.272 163.028 358.453 179.249C353.93 186.057 349.345 192.835 344.811 199.995C343.579 202.007 342.385 204.07 341.221 206.14C340.753 207.15 340.277 208.159 339.798 209.119C337.673 213.525 335.48 217.81 333.254 222.039C332.025 224.535 330.793 227.086 329.54 229.568C363.651 196.332 395.999 163.709 429.085 135.992C447.636 120.452 466.407 106.468 485.831 94.638C485.983 94.0563 486.142 93.4764 486.319 92.917C486.601 91.9896 486.939 91.0917 487.277 90.1939C489.766 83.4738 493.182 76.9966 495.791 71.1817C497.914 66.7266 500.028 62.3338 502.089 57.9519C505.305 51.1204 508.424 44.2973 511.908 38.0778C515.792 31.1929 520.023 24.9316 524.808 19.4491C526.474 17.5664 528.203 15.7558 529.95 14.0298C531.697 12.3038 533.458 10.7098 535.175 9.20954L541.934 4.05788L545.444 1.91977L547.778 1.02896C550.229 0.592506 550.793 1.95236 551.123 3.13452C551.299 3.7722 551.387 4.16368 551.388 5.10415C551.383 5.35225 551.296 5.6041 551.249 5.914C550.914 7.89751 549.946 10.6745 549.018 13.6058C547.804 16.9815 546.5 20.1583 545.122 23.2849C543.107 27.7502 540.936 32.0087 538.802 36.4771L535.515 43.4038C533.308 47.8542 530.922 52.2206 528.447 56.3965C527.998 57.1305 527.547 57.856 527.102 58.6389C527.783 57.777 528.471 57.0132 529.162 56.2342C532.891 52.0601 536.69 48.3935 540.545 45.0943C549.186 37.6549 558.139 31.6743 567.556 28.3554C568.712 27.9234 569.869 27.596 571.023 27.3563C571.571 25.7223 572.212 24.0629 572.939 22.5129C575.47 17.1289 578.875 12.7469 582.01 11.2967C583.118 10.7727 584.649 10.0866 585.944 10.1869C586.502 10.2112 587.02 10.3462 587.48 10.6356C588.548 10.8572 589.805 11.3419 590.695 12.2191C591.567 13.1078 592.094 14.4586 592.267 16.0924C592.977 22.7124 590.833 30.755 587.665 36.8428C585.367 41.8979 582.213 45.7386 579.211 47.527C577.553 48.5031 575.93 48.8449 574.531 48.3816C573.961 48.1697 573.434 47.8556 572.959 47.4258C570.914 46.9891 569.471 44.9397 569.118 41.0033C568.965 38.8599 569.072 36.5553 569.405 34.2256C569.025 34.4862 568.635 34.696 568.252 34.9076C560.029 39.6202 552.398 44.8236 544.959 51.1428C540.513 54.9322 536.17 59.1488 531.795 63.2129C528.835 65.9356 525.865 68.1736 522.893 71.1107C520.622 73.311 518.353 75.6566 516.09 78.1003C520.699 75.8939 525.067 74.0145 529.204 72.7696C536.247 70.6853 542.6 70.2648 548.238 72.3855C551.156 73.5184 553.914 75.1907 556.41 77.9242C560.706 82.5693 564.304 89.7763 567.224 100.209C569.969 96.5576 573.39 94.5666 575.989 94.3031C579.289 93.9462 580.879 99.7852 579.075 106.135C579.012 106.304 578.959 106.516 578.896 106.686C578.809 108.481 578.571 110.295 578.046 112.104C573.06 129.706 557.281 126.129 563.983 106.383C564.057 106.201 564.127 105.969 564.212 105.773ZM155.003 380.33C152.54 379.397 149.996 378.549 147.616 377.074C143.272 374.41 139.15 370.796 135.29 367.568C128.294 361.722 121.705 354.747 115.541 346.783C109.389 338.845 103.658 329.91 98.4253 320.237L87.6936 300.022C86.8104 298.407 85.9647 296.536 85.0661 294.781C84.7695 293.896 84.4583 292.976 84.1448 292.111C84.185 292.17 84.2145 292.177 84.2458 292.192C84.7973 292.721 85.3842 293.219 85.9928 293.585L91.767 296.527C95.1121 299.034 98.6198 301.549 101.975 304.341C104.193 306.21 106.341 308.215 108.343 310.394C110.332 312.577 112.059 315.082 113.677 317.769C116.182 321.919 118.409 326.548 120.795 331.135L126.399 341.647C127.684 344.381 128.723 347.449 129.913 350.296C130.468 351.613 131.05 352.857 131.68 354.032C132.465 355.478 133.34 356.818 134.258 358.096C135.554 359.876 136.936 361.501 138.229 363.232C140.145 365.703 141.911 368.362 143.864 370.641C145.22 372.203 146.656 373.616 148.238 374.654C149.583 375.53 150.956 376.373 152.246 377.421C153.074 378.065 153.88 378.842 154.609 379.752L155.003 380.33ZM151.114 381.725C149.448 381.525 147.817 381.19 146.194 380.993C142.89 380.562 139.722 379.673 136.604 378.523C131.947 376.876 127.456 374.546 123.265 371.405C116.265 366.113 110.014 358.779 104.702 349.802C102.815 346.799 100.615 343.27 98.6641 339.256L98.4665 338.645C95.3938 328.89 92.3305 319.113 89.3724 309.17L96.8916 323.052C102.225 332.702 108.035 341.584 114.294 349.499C120.546 357.413 127.246 364.351 134.334 370.13C138.246 373.307 142.382 376.957 146.82 379.499C148.234 380.304 149.647 381.1 151.114 381.725ZM246.73 224.486C246.6 224.534 246.486 224.627 246.371 224.711C239.028 228.78 231.608 233.681 224.166 239.051C211.822 247.97 199.456 258.258 187.363 268.212C176.417 277.257 164.598 286.24 153.219 291.297C148.807 293.27 144.444 294.741 140.264 295.244C139.466 294.807 138.681 294.301 137.919 293.769C137.733 293.651 137.577 293.34 137.331 293.432C136.542 293.681 137.039 293.778 136.276 294.685C136.133 294.505 135.895 294.64 135.746 294.965C135.727 295.04 135.713 295.109 135.691 295.136C135.462 295.112 135.227 295.095 134.998 295.071C138.29 292.293 141.463 289.317 144.076 287.007C146.434 284.852 148.65 282.96 150.802 280.457C151.131 280.119 151.451 279.74 151.761 279.317C152.638 278.519 153.508 277.688 154.366 276.869L155.702 275.621C158.721 272.881 161.743 270.085 164.766 267.289C174.803 258.086 185.184 249.023 195.494 241.928C200.052 238.745 204.603 236.163 209.093 233.791C213.599 231.463 218.067 229.423 222.446 228.229C226.113 227.046 229.515 226.272 232.9 225.719C236.292 225.095 239.652 224.624 243.136 224.747C243.748 224.76 245.247 224.46 246.73 224.486ZM249.134 224.601C249.317 224.573 249.482 224.525 249.614 224.517L248.379 226.385L241.728 236.112C239.188 239.774 236.529 243.133 233.818 246.246C229.724 250.918 225.515 255.071 221.381 258.944C211.099 268.723 200.642 276.786 190.211 282.895C181.902 287.763 173.642 291.293 165.477 293.705C163.444 294.292 161.41 294.879 159.392 295.341C155.388 296.385 151.264 297.223 147.378 297.091C147.061 297.078 146.755 297.091 146.447 297.056C148.613 296.365 150.799 295.502 153.013 294.501C164.531 289.238 176.469 280.155 187.543 271.021C197.6 262.682 207.852 254.175 218.113 246.345C227.342 239.339 236.57 232.935 245.681 227.613C246.4 227.202 247.12 226.993 247.819 226.352C248.175 226.078 248.434 225.675 248.765 225.282C248.933 225.178 249.085 224.902 249.134 224.601ZM211.015 298.77C204.037 300.123 197.117 301.015 190.275 301.477C189.418 301.5 188.577 301.559 187.729 301.625C191.268 300.297 194.76 299.216 198.096 298.964C201.187 298.613 204.217 298.672 207.251 298.684C208.503 298.677 209.758 298.719 211.015 298.77ZM320.647 238.152C319.198 239.524 317.739 240.855 316.293 242.181C318.491 233.387 320.405 224.38 322.695 215.53C323.89 210.992 325.174 206.444 326.671 202.044C327.94 198.264 329.295 194.626 330.65 190.987C333.867 182.315 337.276 173.964 340.891 165.855C345.612 155.302 350.647 145.114 355.726 134.929C359.128 128.119 362.524 121.211 365.934 114.339C369.412 107.29 372.793 100.21 376.277 93.2507C376.966 91.8926 377.654 90.526 378.349 89.1612C374.904 97.9459 371.531 106.804 368.047 115.54C357.61 141.845 346.952 167.959 336.579 194.337C331.583 206.993 327.267 220.491 322.466 233.413C321.879 234.997 321.263 236.574 320.647 238.152ZM324.571 231.959C329.057 219.845 333.155 207.314 337.857 195.494C346.176 174.673 354.535 153.911 363.025 133.237C366.093 125.831 369.153 118.391 372.271 111.021C376.035 102.153 379.959 93.486 383.74 84.6306C383.076 87.3534 382.379 90.1162 381.635 92.8276C380.059 98.5579 378.333 104.276 376.53 109.725C372.193 123.09 367.432 135.868 362.387 148.392C357.317 160.999 351.956 173.349 346.394 185.746C343.904 191.325 341.357 196.93 338.779 202.559C337.643 204.797 336.541 207.099 335.458 209.421C333.853 212.87 332.271 216.324 330.705 219.823C329.453 222.345 328.177 224.854 326.911 227.341C326.133 228.91 325.356 230.424 324.571 231.959ZM466.927 37.4576C466.886 37.2628 466.827 37.0795 466.75 36.9803C466.856 36.9499 466.954 36.9819 467.045 37.1167C467.099 37.2105 466.982 37.3504 466.927 37.4576ZM467.276 37.6878C467.246 37.7768 467.218 37.8101 467.19 37.8434C467.167 37.8701 467.141 37.8477 467.127 37.812C467.097 37.7001 467.182 37.7049 467.276 37.6878ZM319.43 366.131C317.511 362.172 315.498 358.432 313.339 355.002C309.436 348.749 305.104 343.355 300.515 338.614C292.867 330.72 284.369 324.924 275.11 321.426C268.205 318.834 261.089 316.745 254.239 313.845C251.301 312.587 248.432 311.185 245.639 309.608C244.223 308.763 242.808 308.022 241.426 307.137C243.439 307.221 245.455 307.152 247.499 307.05C257.221 312.132 267.907 314.59 277.442 320.085C280.525 321.772 283.668 323.78 286.863 325.873C291.446 328.845 296.078 332.15 300.368 336.167C305.242 340.664 309.73 345.927 313.294 352.338C314.624 354.617 315.946 356.854 317.122 359.368C317.901 361.022 318.617 362.741 319.229 364.635C319.274 364.783 319.339 365.393 319.43 366.131ZM317.69 366.114C317.353 365.976 317.017 365.877 316.684 365.723C316.476 365.632 316.266 365.532 316.051 365.439C315.878 365.349 315.699 365.265 315.521 365.181C314.898 364.884 314.274 364.578 313.652 364.281C311.6 363.304 309.551 362.376 307.453 361.549C305.633 360.845 303.78 360.223 301.917 359.613C300.324 359.127 298.725 358.647 297.113 358.236C295.093 357.717 293.06 357.267 291.017 356.871C283.938 355.426 276.772 354.337 269.897 352.058C268.114 351.5 266.349 350.827 264.615 350.064C262.344 349.05 260.137 347.866 258.03 346.361C254.836 344.108 251.882 341.19 249.229 337.606C248.605 336.762 247.993 335.913 247.416 334.96C246.575 333.58 245.806 332.074 245.089 330.451C243.763 327.522 242.631 324.311 241.564 320.979C240.549 317.829 239.594 314.662 238.591 311.498L238.51 311.245C240.333 312.399 242.257 313.232 244.153 314.195C247.989 316.172 251.963 317.732 255.996 319.179C261.995 321.315 268.096 323.076 274.061 325.188C283.245 328.395 291.697 333.938 299.326 341.505C303.917 346.054 308.166 351.452 312.181 357.266C314.145 360.134 316.071 363.09 317.911 366.201L317.69 366.114ZM495.993 88.6483C493.498 90.0785 490.997 91.5154 488.524 93.0151C489.037 91.7183 489.575 90.4354 490.149 89.1615C492.582 83.7456 495.455 78.558 497.759 73.834C499.843 69.3293 501.85 64.8216 503.94 60.5112C507.086 53.952 510.397 47.8428 513.829 41.9805C517.499 35.7506 521.382 29.9023 525.831 24.9158C527.407 23.0436 529.053 21.2366 530.695 19.4769C532.354 17.7613 534.013 16.0862 535.647 14.5897L542.127 9.07221L543.854 7.71904C543.693 7.95281 543.528 8.20176 543.354 8.4083C541.739 10.7696 540.077 13.0389 538.485 15.5744C533.761 22.9608 529.279 31.3066 524.79 38.614C516.819 51.8437 508.692 64.7619 501.218 78.9333C499.497 82.1607 497.666 85.329 495.993 88.6483ZM504.109 84.2632C502.764 84.9624 501.409 85.6833 500.037 86.4243C499.846 86.5461 499.647 86.6341 499.449 86.722C500.186 85.3596 500.922 83.9887 501.664 82.6111C504.066 78.12 506.491 73.707 508.961 69.3368C514.472 59.6839 520.134 50.285 525.755 40.7874C530.882 32.0772 535.962 21.9327 541.471 13.5089C542.402 12.0652 543.336 10.6063 544.319 9.34411C545.71 7.58702 547.144 6.13794 548.592 4.75664C548.745 4.72196 548.888 4.70065 549.015 4.70775C549.21 4.66704 549.435 4.5052 549.437 4.74669C549.43 5.0505 549.081 5.02117 548.925 5.4492C548.317 6.96404 547.32 8.99423 546.265 11.1873C545.342 13.3724 544.366 15.4721 543.387 17.5229C541.005 22.5817 538.497 27.3361 535.984 32.2982L532.625 39.2153C530.608 43.4392 528.409 47.5301 526.134 51.5218C523.827 55.4978 521.453 59.3529 519.084 62.9598C516.855 66.3039 514.628 69.4876 512.42 72.6599C510.147 75.8564 507.9 79.0111 505.635 82.1453C505.13 82.8496 504.619 83.5522 504.109 84.2632ZM473.477 200.462C469.959 200.179 466.51 199.623 462.959 199.485C462.018 199.471 461.056 199.525 460.1 199.572C452.368 199.896 444.654 200.441 437.559 198.582C435.202 197.956 432.887 197.1 430.718 195.765C428.599 194.466 426.636 192.643 424.746 190.532C420.618 185.783 417.863 177.722 414.423 171.269C421.78 172.035 429.208 172.769 436.29 174.898C445.118 177.576 453.539 181.729 461.392 187.149C463.077 188.309 464.7 189.848 466.271 191.503C468.782 194.208 471.146 197.384 473.477 200.462ZM425.177 167.007C427.532 167.086 429.841 167.314 432.126 167.665C434.504 168.055 436.863 168.52 439.173 169.191C443.809 170.568 448.259 172.703 452.53 175.253C455.417 176.973 458.252 178.849 460.956 180.934C463.535 182.924 465.935 185.264 468.223 187.842C470.533 190.49 472.712 193.347 474.852 196.451C475.347 197.247 475.814 198.077 476.251 198.996C476.641 199.823 477.001 200.675 477.337 201.617C477.323 201.581 477.312 201.595 477.3 201.608C477.254 201.42 477.195 201.237 477.126 201.075C475.476 197.295 472.853 195.061 470.602 192.195C468.041 188.947 465.358 186.055 462.506 183.998C454.654 178.28 446.17 174.096 437.385 170.923C433.357 169.47 429.304 168.099 425.177 167.007ZM358.689 276.061C358.748 275.642 358.791 275.242 358.811 274.87C358.845 275.03 358.873 275.198 358.877 275.384L358.883 275.482C358.815 275.658 358.761 275.87 358.689 276.061ZM579.843 26.6397C579.798 26.693 579.766 26.7735 579.736 26.7663C579.708 26.7996 579.673 26.7349 579.661 26.7077C579.622 26.5534 579.722 26.5297 579.843 26.6397ZM578.896 106.686C577.845 110.069 575.999 113.298 574.02 115.594C574.788 114.44 575.528 113.159 576.209 111.758L574.03 110.34C575.647 107.087 576.725 102.593 576.093 99.3278C575.732 97.431 573.885 97.7421 572.773 98.0804C572.361 98.2206 571.941 98.4231 571.535 98.7576C571.229 98.9722 570.94 99.2629 570.638 99.5265C569.711 100.521 568.826 101.88 568.082 103.45L568.049 103.289C568.027 103.219 568.002 103.1 567.979 103.022L567.911 102.765C568.759 101.558 569.684 100.458 570.638 99.5265C570.931 99.2206 571.235 98.9655 571.535 98.7576C573.924 96.755 576.332 95.9785 577.79 97.3647C579.254 98.7442 579.068 103.416 578.903 106.583C578.906 106.632 578.907 106.672 578.896 106.686ZM574.02 115.594C571.985 118.656 569.688 120.697 567.377 120.662C565.04 120.668 563.506 114.127 564.803 109.373C564.903 109.012 565.017 108.622 565.141 108.275C565.191 108.416 565.242 108.557 565.292 108.698C565.455 109.244 565.743 109.547 566.093 109.617C565.957 110.476 565.861 111.288 565.835 112.102C565.556 121.196 570.058 120.258 574.02 115.594ZM574.03 110.34C572.115 114.147 569.436 116.239 567.882 112.451C565.849 107.54 572.169 102.401 574.118 104.792C574.589 105.373 573.389 107.338 572.901 108.52C572.788 108.75 572.646 109.013 572.503 109.331L574.03 110.34ZM572.503 109.331C571.107 112.035 568.103 115.993 568.534 110.778C568.623 109.731 568.899 108.167 569.085 107.111L572.503 109.331Z" fill="#28221E"/>
</svg>
